<svg xmlns="http://www.w3.org/2000/svg" xmlns:xlink="http://www.w3.org/1999/xlink" width="468.006" height="312.005" viewBox="0 0 468.006 312.005">
  <defs>
    <clipPath id="clip-path">
      <rect id="Rectangle_1697" data-name="Rectangle 1697" width="468.007" height="312.005" fill="none"/>
    </clipPath>
  </defs>
  <g id="Group_1179" data-name="Group 1179" clip-path="url(#clip-path)">
    <path id="Path_8205" data-name="Path 8205" d="M308.941,140.382c.162,3.215.853,6.456.964,9.692q.424,12.409.848,24.819c.129,3.754,4.893,94.038,5.021,97.795l26.139,2.977s-9.634-99.2-7.01-107.038c3.106-9.286,11.174-19.9,11.209-30.541.062-18.329-5.7-20.366-17.6-17.87-7.212,1.512-11.218-7.351-15.383-1.533-1.435,2.007-4.943,3.525-4.953,6.054,0,.458.746,15.186.768,15.645" transform="translate(9.371 11.748)" fill="#e88566"/>
    <path id="Path_8206" data-name="Path 8206" d="M322.586,128.71c-10.2,2.276-12.56,15.283-12.056,17.909,2.273,11.838,15.685,7.2,23.279,5.348s11.535-23.419,4.545-27.116c-2.364-1.25-8.14,2.154-15.768,3.859" transform="translate(9.602 12.543)" fill="#e87551"/>
    <path id="Path_8207" data-name="Path 8207" d="M297.23,97.653c10.946-8.972,23,.867,25.288,6.26,3.309-4.838,17.054-12.117,26.026-1.171,8.055,9.827,1.312,20.126-1.936,22.905L318.018,149.3,294.63,120.493c-2.639-3.364-7.227-14.785,2.6-22.84" transform="translate(7.665 9.467)" fill="#929a00"/>
    <path id="Path_8208" data-name="Path 8208" d="M332.149,124.112s-.039.255-.108.737a10.322,10.322,0,0,0-.025,2.111c.094,1.873,1.035,4.562,2.879,8.614,3.087,6.775,3.549,13.521.7,20.425-1.509,3.652-2.675,7.967-4.635,11.271-2.5,4.2-7.816,2.232-9.734-1.393-1.946-3.672-5.255-6.646-4.212-10.706,1.382-5.366,7.323-8.465,8.744-13.831,1.018-3.837-.33-8.493-.415-8.821-.6-2.39-.284-5.25,1.189-6.822a5.737,5.737,0,0,1,5.62-1.585" transform="translate(10.241 12.48)" fill="#e88566"/>
    <path id="Path_8209" data-name="Path 8209" d="M341.295,212.8l-30.253,1.439-2.293-36.326,28.5-1.168Z" transform="translate(9.429 17.795)" fill="#fff"/>
    <path id="Path_8210" data-name="Path 8210" d="M355.686,322.043c5.74-85.306-13.874-139.074-13.874-139.074l-16.993-.154-17.773-.16s2.636,104.39-11.62,139.677c-2.754,6.815,29.365-1.5,29.365-1.5s30.377,8.927,30.9,1.214" transform="translate(8.071 18.391)" fill="#2d295c"/>
    <path id="Path_8211" data-name="Path 8211" d="M258.869,206.806c1.757-.773,3.49-1.425,4.969-2.009.626-.247,1.26-.479,1.9-.71-.092-6.9-.285-13.468-.471-19.757-.383-12.951-.745-25.184-.17-37.531a3.446,3.446,0,1,0-6.884-.321c-.59,12.611-.223,24.97.164,38.056.209,7.047.426,14.44.5,22.272" transform="translate(4.309 14.417)" fill="#ffddd4"/>
    <path id="Path_8212" data-name="Path 8212" d="M263.822,200.909q3.431.182,6.85.485c2.428-26.222,2.762-50.393,1.8-59.341a3.446,3.446,0,1,0-6.853.739c.943,8.741.6,32.416-1.793,58.117" transform="translate(4.906 13.993)" fill="#ffddd4"/>
    <path id="Path_8213" data-name="Path 8213" d="M269,199.412q3.409.535,6.785,1.218c3.552-20.763,6.43-39.8,5.8-53a3.446,3.446,0,0,0-6.885.327c.593,12.508-2.221,31.1-5.7,51.45" transform="translate(5.427 14.534)" fill="#ffddd4"/>
    <path id="Path_8214" data-name="Path 8214" d="M276.481,199.135q2.934.758,5.825,1.648C286.072,186.9,287.07,175,288.2,161.461l.2-2.427a3.015,3.015,0,1,0-6.01-.505l-.2,2.431c-1.1,13.151-2.065,24.716-5.707,38.175" transform="translate(6.18 15.683)" fill="#ffddd4"/>
    <path id="Path_8215" data-name="Path 8215" d="M283.385,174.686c-22.8-10.7-22.4-5.4-23.6.788-.252,1.3-.715,6.421-1.127,7.571-.4,1.111-1.749-2.08-1.873-5.893-.164-4.981-.347-8.744-3.038-11.545a4.1,4.1,0,0,0-5.564-.612c-1.738,1.451-2.117,1.538-.58,3.151,1.566,1.647,1.5,4.988,1.429,8.858a60.325,60.325,0,0,0,.174,7.343,11.61,11.61,0,0,0,.2,1.6q.168,1.1.434,2.208c1.347,6.327,4.633,18.366,7.945,23.168,2.773,4.019,2.354,17.238,2.044,20.917-1.086,12.89-7.1,104.672-7.1,104.672-.14,9.2,27.458,9.2,27.4,2.919-.237-25.486,1.557-71.8,1.647-117.5.018-9.166,4.689-14.7,5.944-23.044,3.915-26.041-.594-22.842-4.34-24.6" transform="translate(3.176 16.528)" fill="#ffddd4"/>
    <path id="Path_8216" data-name="Path 8216" d="M282.617,239.053l-25.944,1.021.734-13.575,24.949.55Z" transform="translate(4.186 22.805)" fill="#fff"/>
    <path id="Path_8217" data-name="Path 8217" d="M293.711,331.808c-4.4,11.413-46.492,19.048-48.43,6.971-4.769-29.718,11.289-106.9,11.289-106.9l29.338.086s17.71,74.159,7.8,99.841" transform="translate(2.95 23.347)" fill="#85d1cf"/>
    <path id="Path_8218" data-name="Path 8218" d="M282.115,173.725c-5.544-4.5-11.593.5-12.736,3.224-1.681-2.43-8.632-6.065-13.127-.521-4.035,4.977-.608,10.152,1.037,11.545l14.481,11.852,11.718-14.59c1.321-1.7,3.6-7.476-1.373-11.511" transform="translate(3.953 17.31)" fill="#ff7a4f"/>
    <path id="Path_8219" data-name="Path 8219" d="M74.927,164.4c1.786-.7,3.545-1.282,5.046-1.805.636-.222,1.279-.427,1.923-.633.188-6.9.262-13.468.331-19.761.142-12.956.276-25.192,1.354-37.506a3.446,3.446,0,1,0-6.866-.6c-1.1,12.575-1.236,24.94-1.38,38.032-.077,7.049-.161,14.444-.407,22.273" transform="translate(-14.113 10.164)" fill="#ffc0af"/>
    <path id="Path_8220" data-name="Path 8220" d="M79.857,157.509q3.416.355,6.817.829c3.741-26.066,5.288-50.191,4.773-59.177a3.446,3.446,0,0,0-6.881.4c.5,8.777-1.023,32.4-4.708,57.953" transform="translate(-13.617 9.657)" fill="#ffc0af"/>
    <path id="Path_8221" data-name="Path 8221" d="M87.431,157.725q3.429.386,6.831.923c2.649-20.9,4.7-40.04,3.5-53.2a3.447,3.447,0,0,0-6.865.624c1.136,12.471-.872,31.166-3.469,51.65" transform="translate(-12.854 10.302)" fill="#ffc0af"/>
    <path id="Path_8222" data-name="Path 8222" d="M93.882,157.368q2.94.731,5.839,1.6c3.643-13.917,4.534-25.828,5.541-39.373l.182-2.43a3.015,3.015,0,1,0-6.014-.45l-.181,2.433c-.98,13.161-1.845,24.733-5.367,38.225" transform="translate(-12.205 11.47)" fill="#ffc0af"/>
    <path id="Path_8223" data-name="Path 8223" d="M100.63,133.871c-22.575-11.165-22.284-5.849-23.61.308-.278,1.294-.846,6.406-1.28,7.546-.419,1.1-1.707-2.116-1.754-5.93-.062-4.983-.17-8.749-2.8-11.6a4.1,4.1,0,0,0-5.551-.724c-1.767,1.415-2.147,1.495-.644,3.139,1.533,1.677,1.4,5.017,1.249,8.885a60.051,60.051,0,0,0,.024,7.345,11.689,11.689,0,0,0,.172,1.6q.145,1.1.389,2.216c1.218,6.352,4.259,18.456,7.473,23.325,2.69,4.075,2,17.283,1.618,20.955-1.348,12.866-9.226,104.507-9.226,104.507-.326,9.2,27.265,9.753,27.338,3.475.281-25.486,3.015-71.757,4.033-117.44.2-9.163,4.987-14.6,6.411-22.917,4.443-25.956-.13-22.85-3.839-24.685" transform="translate(-15.208 12.352)" fill="#ffc0af"/>
    <path id="Path_8224" data-name="Path 8224" d="M70.959,219.936l26.891,2.543,2-36.422-26.891-2.542Z" transform="translate(-14.513 18.477)" fill="#84d2d2"/>
    <path id="Path_8225" data-name="Path 8225" d="M62.038,318.718c7.551,11.315,50.014,8.484,46.963-1.835-7.7-26.049-5.871-122.542-5.871-122.542l-31.6-.07s-26.043,99.638-9.488,124.448" transform="translate(-15.965 19.56)" fill="#2d295c"/>
    <path id="Path_8226" data-name="Path 8226" d="M104,137.978c-3.623-6.421-11.33-3.915-13.46-1.73-.695-2.972-6-9.1-12.418-5.476-5.764,3.253-4.432,9.525-3.379,11.488l9.422,16.879,16.791-9.579c1.915-1.136,6.3-5.817,3.044-11.581" transform="translate(-14.225 13.055)" fill="#ff7a4f"/>
    <path id="Path_8227" data-name="Path 8227" d="M202.152,151.332c1.9-1.015,3.785-1.9,5.391-2.685.681-.332,1.373-.649,2.064-.966-.892-7.194-1.858-14.019-2.787-20.56-1.911-13.469-3.716-26.191-4.473-39.143a3.932,3.932,0,0,0-7.825.482c.772,13.227,2.6,26.081,4.527,39.69,1.04,7.328,2.129,15.018,3.1,23.181" transform="translate(-2.072 8.518)" fill="#ffc0af"/>
    <path id="Path_8228" data-name="Path 8228" d="M205.184,143.58q3.906.094,7.8.314c1.859-27.582,1.408-52.954,0-62.315a3.888,3.888,0,0,0-4.421-3.1,3.667,3.667,0,0,0-3.345,4.07c1.373,9.144,1.8,34-.041,61.031" transform="translate(-0.998 7.898)" fill="#ffc0af"/>
    <path id="Path_8229" data-name="Path 8229" d="M212.685,142.337q3.911.322,7.8.8c2.309-22,4-42.134,2.191-55.914a3.9,3.9,0,0,0-4.363-3.184,3.664,3.664,0,0,0-3.421,4c1.712,13.061.059,32.729-2.2,54.289" transform="translate(-0.243 8.46)" fill="#ffc0af"/>
    <path id="Path_8230" data-name="Path 8230" d="M221.323,142.546q3.4.568,6.758,1.281c2.938-14.828,2.928-27.37,2.91-41.632l0-2.558a3.344,3.344,0,0,0-3.432-3.2,3.262,3.262,0,0,0-3.426,3.131l0,2.561c.018,13.858.028,26.043-2.81,40.417" transform="translate(0.627 9.71)" fill="#ffc0af"/>
    <path id="Path_8231" data-name="Path 8231" d="M226.288,117.44c-26.486-10.079-25.745-4.533-26.773,2.01-.216,1.375-.463,6.768-.868,7.994-.391,1.183-2.1-2.095-2.45-6.086-.456-5.213-.87-9.15-4.08-11.951a4.946,4.946,0,0,0-6.354-.362c-1.9,1.608-2.321,1.718-.489,3.333,1.87,1.648,1.979,5.155,2.106,9.215a58.4,58.4,0,0,0,.6,7.689,11.317,11.317,0,0,0,.318,1.664q.251,1.142.613,2.294c1.874,6.564,6.263,19.022,10.287,23.89,3.369,4.075,3.612,17.955,3.459,21.828-.534,13.569-2.377,110.1-2.377,110.1.342,9.657,31.7,8.265,31.3,1.685-1.655-26.708-2.134-75.357-4.517-123.268-.478-9.61,4.53-15.644,5.5-24.457,3.033-27.5-1.917-23.918-6.27-25.574" transform="translate(-3.121 10.879)" fill="#ffc0af"/>
    <path id="Path_8232" data-name="Path 8232" d="M196.744,177.567l34.328-1.444-.939-10.687-32.658.385Z" transform="translate(-1.848 16.657)" fill="#85d1cf"/>
    <path id="Path_8233" data-name="Path 8233" d="M185.66,348.523c3.4,13.454,77.9-3.363,72.1-15.97-19.078-41.459-23.716-159.09-23.716-159.09l-37.956.156S174.472,304.3,185.66,348.523" transform="translate(-3.288 17.465)" fill="#3155a3"/>
    <path id="Path_8234" data-name="Path 8234" d="M227.4,116.583c-5.052-4.88-11.851-.922-13.366,1.5-1.393-2.481-7.988-6.724-13.278-2.063-4.749,4.184-1.937,9.449-.446,10.953l13.18,12.853,13.808-12.279c1.565-1.439,4.636-6.579.1-10.961" transform="translate(-1.71 11.471)" fill="#f3ff00"/>
    <path id="Path_8235" data-name="Path 8235" d="M376.416,184.742c1.6-1.058,3.2-1.992,4.559-2.817.576-.349,1.162-.684,1.749-1.019-1.254-6.79-2.548-13.227-3.791-19.4-2.558-12.7-4.975-24.7-6.486-36.965a3.446,3.446,0,1,0-6.84.842c1.542,12.529,3.984,24.651,6.569,37.485,1.392,6.911,2.851,14.162,4.24,21.871" transform="translate(15.151 12.235)" fill="#ffc0af"/>
    <path id="Path_8236" data-name="Path 8236" d="M380.806,177.964q3.4-.467,6.818-.813c-2.553-26.21-6.777-50.012-9.41-58.618a3.446,3.446,0,0,0-6.591,2.016c2.571,8.407,6.7,31.722,9.183,57.415" transform="translate(15.744 11.689)" fill="#ffc0af"/>
    <path id="Path_8237" data-name="Path 8237" d="M387.29,174.847q3.432-.352,6.87-.55c-1.856-20.983-3.923-40.124-7.891-52.725a3.447,3.447,0,0,0-6.575,2.07c3.762,11.944,5.777,30.638,7.6,51.2" transform="translate(16.556 11.998)" fill="#ffc0af"/>
    <path id="Path_8238" data-name="Path 8238" d="M393.386,172.086c2.02.006,4.037.053,6.052.155.215-14.384-1.764-26.162-4.02-39.556l-.4-2.4a3.016,3.016,0,0,0-5.948,1l.405,2.406c2.191,13.013,4.114,24.458,3.915,38.4" transform="translate(17.511 12.864)" fill="#ffc0af"/>
    <path id="Path_8239" data-name="Path 8239" d="M395.37,149.5c-24.4-6.22-23.013-1.081-23.027,5.217,0,1.324.506,6.441.319,7.649-.182,1.165-2.111-1.715-2.951-5.436-1.1-4.861-1.988-8.521-5.158-10.766a4.1,4.1,0,0,0-5.579.447c-1.433,1.752-1.789,1.909.024,3.2,1.848,1.322,2.415,4.616,3.071,8.431a60.407,60.407,0,0,0,1.553,7.178,11.745,11.745,0,0,0,.5,1.53c.248.7.527,1.4.841,2.088,2.515,5.959,8.009,17.165,12.166,21.256,3.479,3.425,3.09,24.365,3.478,28.036,1.36,12.865,15.206,96.259,15.206,96.259,1.6,9.068,28.7,3.862,27.462-2.293-5.033-24.987-11.993-70.813-20.51-115.705-1.708-9.006,1.838-15.318,1.5-23.751-1.059-26.313-4.885-22.322-8.9-23.344" transform="translate(14.364 14.628)" fill="#ffc0af"/>
    <path id="Path_8240" data-name="Path 8240" d="M406.911,200.007l-31,.577s8.9,91.506-1.375,131.5c-1.22,4.747,18.533,6.393,18.533,6.393l-.065-2.81s27.016,5.566,28.715-1.418c10.787-44.358-14.81-134.239-14.81-134.239" transform="translate(16.047 20.138)" fill="#0b928e"/>
    <path id="Path_8241" data-name="Path 8241" d="M398.774,152.223c-4.93-5.815-12.269-1.771-14.008.864-1.282-2.884-7.861-8.075-13.677-3.145-5.219,4.427-2.647,10.538-1.2,12.325l12.856,15.307,15.187-13c1.725-1.527,5.263-7.135.838-12.355" transform="translate(15.391 14.891)" fill="#f3ff00"/>
    <path id="Path_8242" data-name="Path 8242" d="M159.486,177.526c.315,3.2.109,6.511.477,9.728q1.412,12.336,2.824,24.672c.427,3.734,9.039,93.732,9.466,97.466l-25.413,6.8s-5.11-99.532-8.863-106.9c-4.443-8.726-13.99-18.036-15.594-28.552-2.766-18.118,2.637-20.986,14.773-20.272,7.356.433,13.733,4.787,18.712,9.927,1.716,1.772,3.064,3.266,3.447,5.765q.1.679.171,1.365" transform="translate(-9.406 16.147)" fill="#ffb17a"/>
    <path id="Path_8243" data-name="Path 8243" d="M143.805,168.227c10.42.747,14.678,13.262,14.566,15.934-.5,12.044-14.451,9.437-22.235,8.726s-14.865-21.461-8.5-26.15c2.154-1.585,8.369.93,16.166,1.49" transform="translate(-9.054 16.736)" fill="#ffa15e"/>
    <path id="Path_8244" data-name="Path 8244" d="M170.535,264.419l-30.984,1.771,1.125-11.679,26.3-1.424Z" transform="translate(-7.607 25.482)" fill="#ee78ac"/>
    <path id="Path_8245" data-name="Path 8245" d="M185.848,313.759l-54.241.416,2.948-42.561a9.624,9.624,0,0,1,9.272-8.953l24.2-.827a9.622,9.622,0,0,1,9.795,7.891Z" transform="translate(-8.406 26.362)" fill="#ee78ac"/>
    <rect id="Rectangle_1694" data-name="Rectangle 1694" width="27.276" height="4.13" transform="matrix(0.996, -0.094, 0.094, 0.996, 129.948, 242.592)" fill="#85d1cf"/>
    <rect id="Rectangle_1695" data-name="Rectangle 1695" width="27.276" height="4.13" transform="matrix(0.996, -0.094, 0.094, 0.996, 130.757, 252.996)" fill="#0b928e"/>
    <rect id="Rectangle_1696" data-name="Rectangle 1696" width="27.276" height="4.13" transform="matrix(0.996, -0.094, 0.094, 0.996, 130.258, 247.604)" fill="#2f559e"/>
    <path id="Path_8246" data-name="Path 8246" d="M163.277,134.77c-12.636-5.687-21.515,6.687-22.306,12.369-4.362-3.728-19.212-7.1-24.9,5.533-5.106,11.345,3.9,19.359,7.675,21.158l33.06,15.064,14.757-33.2c1.636-3.852,3.059-15.82-8.286-20.926" transform="translate(-10.125 13.422)" fill="#95a004"/>
    <path id="Path_8247" data-name="Path 8247" d="M132.51,165.264s.076.247.215.713a10.234,10.234,0,0,1,.338,2.085c.184,1.867-.351,4.665-1.577,8.944-2.053,7.157-1.515,13.9,2.325,20.305,2.031,3.389,3.82,7.484,6.247,10.463,3.09,3.786,8.059,1.054,9.422-2.814,1.382-3.92,4.217-7.349,2.587-11.212-2.16-5.1-8.493-7.292-10.689-12.389-1.574-3.644-.927-8.449-.893-8.785.244-2.453-.493-5.236-2.182-6.572a5.734,5.734,0,0,0-5.793-.739" transform="translate(-8.537 16.594)" fill="#ffb17a"/>
  </g>
</svg>
