<?xml version="1.0" encoding="utf-8"?>
<!-- Generator: Adobe Illustrator 21.0.1, SVG Export Plug-In . SVG Version: 6.00 Build 0)  -->
<svg version="1.1" id="Layer_1" xmlns="http://www.w3.org/2000/svg" xmlns:xlink="http://www.w3.org/1999/xlink" x="0px" y="0px"
	 viewBox="0 0 100 100" style="enable-background:new 0 0 100 100;" xml:space="preserve">
<style type="text/css">
	.st0{fill:#707805;}
</style>
<g>
	<g>
		<path class="st0" d="M52.5,68.3c-2.3-9.9,0-18.3,3.9-23c4.1-4.8,8.6-8.4,12.1-13.2l-3.6,12c-4.9,2.6-9.3,6.1-11.1,14.1
			c-0.8,3.4-0.5,7-0.6,10.3C53.6,58.2,58,51.2,63,48.4c5.1-2.9,10.3-4.4,14.9-7.5l-6.7,10c-5,0.4-9.7,2.1-13.3,8.5
			c-1.6,2.9-2.4,6.3-3.4,9.4c3.2-9.5,9.1-14.2,14.6-14.7c5.6-0.5,10.9,0.3,16.1-0.7L67.4,66.6l25.4-16.3l-0.2,0.1
			c0.4-0.3,0.8-0.6,1.2-0.9c6-4.8,7.2-15.1,5.5-21.6v0l0,0c-0.2-0.7-0.4-1.3-0.6-1.9L84.9,42.7l13.8-12.4c-0.1,3.5-0.6,7.2-2.3,10.6
			c-6.1,12-15.6,9.5-24.3,10l12-16.2L84,34.8c0.3-0.4,0.6-0.9,0.9-1.3c4.3-7.1,2.7-17.3-0.7-22.7h0l0,0c-0.3-0.6-0.7-1.1-1.1-1.5
			l-8.4,21.6l9.6-17.5c0.9,3.3,1.4,7,0.7,10.9c-2.4,13.4-11.4,15.4-19.3,19.3l7-20l-0.1,0.2c0.2-0.5,0.3-1,0.5-1.6
			c2.2-8.5-2-17.4-6.6-21.2v0l0,0c-0.5-0.4-0.9-0.7-1.4-1l-2.3,23.8l4.5-20.5c1.7,2.8,3.2,6.1,3.6,10c2.1,22.9-21.7,23.2-20.6,44.9
			C50.5,61.8,51.7,65.1,52.5,68.3z"/>
		<path class="st0" d="M49.6,58.3c1.1-21.8-22.7-22-20.6-44.9c0.4-3.9,1.9-7.2,3.6-10l4.5,20.5L34.8,0c-0.5,0.3-0.9,0.6-1.4,1l0,0v0
			c-4.6,3.8-8.8,12.7-6.6,21.2c0.1,0.6,0.3,1.1,0.5,1.6l-0.1-0.2l7,20c-7.9-3.9-16.8-5.9-19.3-19.3c-0.7-3.9-0.1-7.6,0.7-10.9
			l9.6,17.5L16.8,9.3c-0.4,0.4-0.7,0.9-1.1,1.5l0,0h0c-3.4,5.5-5,15.6-0.7,22.7c0.3,0.5,0.6,0.9,0.9,1.3l-0.1-0.1l12,16.2
			c-8.7-0.5-18.2,2-24.3-10c-1.7-3.3-2.2-7.1-2.3-10.6l13.8,12.4L1.3,26c-0.2,0.6-0.4,1.2-0.6,1.9l0,0v0C-1,34.4,0.2,44.7,6.2,49.5
			c0.4,0.3,0.8,0.6,1.2,0.9l-0.2-0.1l25.4,16.3L14.8,53.5c5.2,1,10.5,0.2,16,0.7c5.5,0.5,11.4,5.3,14.6,14.7c-1-3.1-1.7-6.6-3.4-9.4
			c-3.6-6.4-8.3-8.1-13.3-8.5l-6.7-10c4.6,3.1,9.8,4.6,14.9,7.5c5,2.8,9.3,9.8,9.8,20.1c-0.1-3.3,0.1-6.9-0.6-10.3
			c-1.8-8-6.1-11.6-11.1-14.1l-3.6-12c3.5,4.8,8,8.4,12.1,13.2c4,4.7,6.2,13.1,3.9,23C48.3,65.1,49.5,61.8,49.6,58.3z"/>
	</g>
	<g>
		<path d="M6.8,95.3c-4.7,0-6.7-3.3-6.8-5.8c-0.1-1.3,0.1-2.9,1-4.1c0.3,0.3,0.8,0.7,1,0.9c-0.6,1-0.7,2.3-0.6,3.1
			c0.2,1.8,1.7,4.4,5.5,4.4H13c2.4,0,5.2-1,5.2-4c0-3.1-2.9-4-5.2-4H9.1v-3.6c-0.1-2.8,1.7-4.1,4.4-4.1c2.4,0,4.3,1,4.6,3.5h-1.6
			c-0.2-1.7-1.5-2.1-3-2.1c-1.7,0-2.8,0.7-2.9,2.6v2.3h2.9c2.5,0,6.1,1.3,6.1,5.3c0,4-3.7,5.4-6.5,5.4L6.8,95.3L6.8,95.3L6.8,95.3z
			 M9,100H7.3v-1.8H9V100z M12.8,100H11v-1.8h1.7V100z"/>
		<path d="M29.1,90.6c-3.5,0-6.1-2.6-6.1-5.9c0-3.3,2.3-6.3,6.1-6.3c1.9,0,4.7,0,4.7,0v12.2c0,3.2-2.2,4.8-5,4.7
			c-1.1-0.1-2.4-0.5-2.7-0.7c0,0-0.1-0.7-0.2-1.4c1.1,0.6,2,0.7,2.7,0.7c2.2,0.1,3.7-1.2,3.7-3.3C32.4,90.6,30.8,90.6,29.1,90.6z
			 M32.4,89.2v-9.4c0,0-2,0-3.2,0c-2.8,0-4.4,2.6-4.4,4.7c0,2.4,1.6,4.8,4.4,4.8C32,89.2,32.4,89.2,32.4,89.2z"/>
		<path d="M39.2,90.6h-1.5V72.8h1.5V90.6z"/>
		<path d="M50.5,82.4c-0.2-2-1.1-2.6-2.8-2.6c-1.6,0-2.9,0.5-3.2,2.1H43c0.4-2.5,2.3-3.5,4.6-3.5c2.7,0,4.4,1.3,4.4,4.1v6.7h3.9v1.4
			H42.7v-1.4h7.8L50.5,82.4L50.5,82.4z"/>
		<path d="M60.6,90.6h-5v-1.4h5V90.6z"/>
		<path d="M65.4,90.6h-5v-1.4h5V90.6z"/>
		<path d="M70.1,90.6h-5v-1.4h5V90.6z"/>
		<path d="M69.9,90.6v-1.4h2.2c2,0,3.2-1.2,3.2-3.4v-6.6h1.5v5.9c0.1,2.3,1.2,4,3.7,4h1.1v1.4h-0.9c-2.1,0-3.8-1.4-4.3-2.7
			c-0.5,1.4-1.5,2.7-4,2.7L69.9,90.6L69.9,90.6z M76.9,75.5h-1.7v-1.9h1.7V75.5z"/>
		<path d="M81.6,90.6v-1.4h3.7v-0.6c0-3.2,1.6-6.4,5.3-6.9c0.7-2.2,2.3-3.9,4.8-3.9c2.6,0,4.7,1.6,4.7,4.2v8.5L81.6,90.6L81.6,90.6z
			 M90.2,83.2c-2.4,0.4-3.5,2.8-3.5,5.4v0.6h3.4v-4.8C90.1,84,90.1,83.6,90.2,83.2z M91.5,89.2h2.8v-3.5c0-1.7-1.2-2.5-2.7-2.5
			c-0.1,0.4-0.1,0.8-0.1,1.3L91.5,89.2L91.5,89.2z M92,81.7c1.6,0.2,3.8,1.3,3.8,3.9v3.5h2.7v-6.9c0-1.7-1.1-3-3.2-3
			C93.7,79.3,92.6,80.3,92,81.7z"/>
	</g>
</g>
</svg>
